<svg xmlns="http://www.w3.org/2000/svg" version="1.1" id="Layer_1" x="0" y="0" viewBox="0 0 180 50" style="enable-background:new 0 0 180 50" xml:space="preserve"><style>.st0{fill:#1d3a45}.st1{fill:#bc473a}.st3{fill:#fdc72e}.st4{fill:#e09b00}</style><path class="st0" d="M58.3 28.1c0 4.8-1.7 7.2-5 7.2-.5 0-1-.1-1.5-.2v-1.3c.5.2 1.1.3 1.5.3 1.3 0 2.2-.5 2.8-1.5.6-1 .8-2.5.8-4.5V15h1.4v13.1zM62.5 34.2v-1.6c1.4.9 2.9 1.4 4.3 1.4 1.6 0 2.7-.3 3.5-1 .8-.6 1.2-1.5 1.2-2.7 0-1-.3-1.8-.8-2.4-.5-.6-1.7-1.4-3.5-2.5-2-1.2-3.3-2.2-3.8-3-.5-.8-.8-1.7-.8-2.7 0-1.4.5-2.6 1.6-3.6s2.6-1.5 4.4-1.5c1.2 0 2.4.2 3.6.6v1.4c-1.2-.5-2.4-.8-3.7-.8-1.4 0-2.4.3-3.2 1-.8.7-1.2 1.6-1.2 2.6s.3 1.8.8 2.4c.5.6 1.7 1.4 3.5 2.5 1.9 1.1 3.1 2 3.7 2.8.6.8.9 1.8.9 2.8 0 1.5-.5 2.8-1.6 3.7-1.1 1-2.6 1.4-4.5 1.4-.7 0-1.5-.1-2.4-.3-.9.1-1.6-.2-2-.5zM76.9 35V15H84c7.1 0 10.6 3.2 10.6 9.7 0 3.1-1 5.6-2.9 7.4C89.8 34 87.2 35 84 35h-7.1zm4.5-16.3v12.6h2.2c1.9 0 3.5-.6 4.6-1.7 1.1-1.2 1.7-2.8 1.7-4.8 0-1.9-.5-3.4-1.6-4.5s-2.6-1.6-4.6-1.6h-2.3zM110.2 35h-12V15h11.5v3.7h-7v4.4h6.5v3.6h-6.5v4.6h7.5V35zM125.9 35H114V15h4.5v16.3h7.4V35zM133.2 15v20h-4.5V15h4.5zM154.6 15l-6.8 20h-5.1l-6.8-20h4.8l4.2 13.9c.2.8.4 1.4.4 2h.1c.1-.6.2-1.3.4-2l4.1-13.8h4.7zM174 35h-5.2l-3.1-5.1c-.2-.4-.5-.7-.7-1-.2-.3-.4-.6-.6-.8-.2-.2-.4-.4-.7-.5-.2-.1-.5-.2-.8-.2h-1.2V35h-4.5V15h7.1c4.8 0 7.3 1.8 7.3 5.4 0 .7-.1 1.3-.3 1.9-.2.6-.5 1.1-.9 1.6s-.9.9-1.4 1.2c-.6.3-1.2.6-1.8.8v.1c.3.1.6.2.9.5.3.2.5.5.8.7.3.3.5.6.7.9.2.3.5.6.6.9l3.8 6zm-12.2-16.6v5.5h1.9c1 0 1.7-.3 2.3-.8.6-.6.9-1.3.9-2.1 0-1.7-1-2.6-3.1-2.6h-2z"/><g><path class="st1" d="m24.4 5-3.7 13.2V31.6L24.4 45l3.9-13.4V18.2L24.4 5z"/><path style="fill:#e84d3d" d="M24.4 5 6 11.7l2.6 24.5L24.4 45"/><path class="st1" d="m24.4 45 16-8.8 2.9-24.6L24.4 5"/><g><path class="st3" d="M21.1 34.7c-1.8-.6-3.4-1.6-4.7-2.9l-.5-.5c-1-1.2-1.8-2.6-2.2-4.1.3.3.6.5 1 .8l1.5.9c.2.1.3.2.5.2.2.1.4.2.7.2h.1c.1.9.8 1.6 1.7 1.8.3 1.5.9 2.7 1.9 3.6zM21.8 18.8c0 .4.1.8.3 1.1-1.5 2.1-2.5 4.4-3 6.6 0 .3-.1.5-.1.7-.5.1-.9.5-1.2.9h-.1c-.2-.1-.3-.1-.5-.2s-.5-.2-.7-.3c-.8-.4-1.5-.9-2.1-1.6l-.4-.4-.1-.1c0-.1-.1-.1-.1-.2l-.1-.1v-.1s0-.1-.1-.1v-.1c-.1-.1-.1-.2-.2-.3v-.7c0-2.3.7-4.4 1.8-6.1.1-.2.3-.4.4-.6.1-.2.3-.4.4-.6 1.4-1.6 3.1-2.8 5.2-3.4 0 .2.1.4.1.7.2 1.2.6 2.3 1.1 3.5-.4.4-.6.8-.6 1.4zM20.6 29.2c0 .3-.1.5-.3.7l-.1.1c-.2.2-.4.3-.7.3-.2 0-.4-.1-.6-.2-.2-.1-.3-.3-.4-.5-.1-.1-.1-.3-.1-.5 0-.3.1-.6.3-.8l.1-.1c.2-.1.4-.2.6-.2.2 0 .5.1.7.2l.3.3c.1.3.2.5.2.7zM24.9 18.8c0 .2 0 .3-.1.5-.2.4-.5.6-1 .6h-.2c-.5-.1-.8-.4-.9-.9v-.2c0-.1 0-.2.1-.4.1-.4.6-.7 1-.7.5 0 .9.3 1 .8.1 0 .1.1.1.3z"/><path class="st4" d="M35.7 24c0 1.1-.2 2.1-.4 3.1-1-.3-1.9-.6-2.9-1.1v-.4c0-.3-.1-.5-.2-.8l.1-.1c1.1-1.2 2.1-2.5 2.9-3.9.3 1.1.5 2.1.5 3.2zM34.6 19.2c-.1.2-.2.3-.2.5-.8 1.5-1.7 2.9-3 4.1-.3-.2-.7-.3-1.1-.3-.5 0-.9.1-1.2.4-.6-.5-1.2-1-1.8-1.6-.7-.7-1.4-1.5-2-2.3.3-.4.5-.8.5-1.3 0-.4-.1-.7-.3-1 1.5-1.4 3.1-2.5 4.7-3.3 2 1.1 3.5 2.8 4.4 4.8zM31.4 25.6c0 .5-.3.8-.7 1-.1.1-.3.1-.4.1h-.2c-.5-.1-.8-.5-.9-1 0-.5.3-.9.7-1 .1 0 .2-.1.4-.1h.3c.5.1.8.5.8 1 0-.1 0 0 0 0zM31.7 27.1c-.4.3-.8.5-1.4.5-.4 0-.8-.1-1.1-.3l-.1.1c-1.5.9-3 1.6-4.6 2v5.8c4.7 0 8.7-2.8 10.4-6.9-1.1-.3-2.2-.7-3.2-1.2z"/><path class="st3" d="M24.4 29.4c-1 .2-1.9.4-2.9.4h-.2c-.2.5-.5.9-1 1.1.3 1.1.8 2 1.6 2.8.6.6 1.4 1.1 2.3 1.4h.2v-5.7z"/><path class="st4" d="M28.3 25.6c0-.2 0-.4.1-.6-.7-.5-1.3-1.1-2-1.7-.7-.7-1.4-1.5-2-2.3v7.1c1.3-.4 2.7-1 4-1.8 0-.2-.1-.5-.1-.7z"/><path class="st3" d="m24.4 21-.2-.2c-.1 0-.3.1-.5.1-.3 0-.5-.1-.8-.1-1.4 1.9-2.3 4-2.7 6.1 0 .2-.1.4-.1.6.6.2 1 .7 1.2 1.3h.1c1 0 2-.2 2.9-.5V21z"/><path class="st4" d="M24.4 12.7v4.1c.1 0 .1 0 .2.1 1.3-1.3 2.8-2.4 4.3-3.2-1.4-.6-2.9-1-4.5-1z"/><path class="st3" d="M24.4 12.7c-.7 0-1.4.1-2.1.2 0 .2.1.5.1.7.2 1 .5 2.1 1 3.1h.4c.2 0 .4 0 .6.1v-4.1z"/></g></g></svg>