<svg xmlns="http://www.w3.org/2000/svg" viewBox="0 0 330 241" width="100%" height="100%" fill="none"><g clip-path="url(#a)"><path fill="#CF7522" stroke="#fff" stroke-width="8" d="m171.514 210.672-.006.003-.007.003c-.717.358-1.534.461-2.326.304-1.486-.294-2.092-1.028-2.446-1.852-.448-1.041-.45-2.255-.339-2.813l35.471-179.0918c.22-1.1065.922-2.029 1.922-2.5282.346-.1148.784-.2761 1.321-.4739 2.613-.9619 7.569-2.7866 15.673-4.3209 10.147-1.921 24.244-3.0651 40.689-.1184 16.777 3.1628 35.653 11.4949 54.595 24.6852 3.309 2.3123 4.906 6.6296 4.362 11.4434l-33.08 167.0166c-.528 2.663-3.609 3.763-5.582 2.318-55.564-40.744-107.73-15.819-110.247-14.575Z"/></g><g clip-path="url(#b)"><path fill="#CF7522" stroke="#fff" stroke-width="8" d="m158.439 210.682.007.003.007.003c.717.358 1.534.461 2.325.304 1.486-.294 2.093-1.028 2.447-1.851.447-1.042.449-2.256.339-2.814L128.092 27.2354c-.219-1.1065-.921-2.0289-1.921-2.5282-.346-.1148-.784-.2761-1.321-.4739-2.613-.9619-7.569-2.7866-15.674-4.3209-10.1467-1.921-24.2437-3.065-40.6882-.1184-16.777 3.1629-35.6531 11.4949-54.5951 24.6852-3.3089 2.3123-4.9057 6.6296-4.3621 11.4434L42.6108 222.939c.5275 2.664 3.6093 3.764 5.5817 2.318 55.5635-40.744 107.7305-15.819 110.2465-14.575Z"/></g><g clip-path="url(#c)"><path fill="#E69B57" stroke="#fff" stroke-width="8" d="m170.873 208.731-.006.004-.006.005c-.633.49-1.415.75-2.222.75-1.515 0-2.252-.602-2.76-1.341-.641-.934-.879-2.126-.879-2.694V22.8841c0-1.128.509-2.1692 1.393-2.8532.317-.1799.716-.4233 1.204-.7217 2.377-1.4512 6.883-4.204 14.536-7.2837 9.58-3.856 23.186-7.717 39.89-8.0215 17.072-.1571 37.207 4.3487 58.351 13.6074 3.695 1.6254 6.1 5.5501 6.502 10.3778V198.25c0 2.715-2.809 4.393-5.025 3.358-62.421-29.171-108.751 5.414-110.978 7.123Z"/></g><g clip-path="url(#d)"><path fill="#E69B57" stroke="#fff" stroke-width="8" d="m159.127 208.731.006.004.006.005c.633.49 1.415.75 2.222.75 1.515 0 2.252-.602 2.76-1.341.641-.934.879-2.126.879-2.694V22.8841c0-1.128-.509-2.1692-1.393-2.8532-.318-.1799-.716-.4233-1.204-.7217-2.377-1.4512-6.883-4.204-14.536-7.2837-9.58-3.856-23.186-7.717-39.89-8.0215-17.0716-.1571-37.2068 4.3487-58.3507 13.6074-3.695 1.6254-6.1002 5.5501-6.5023 10.3778l.0001 170.2618c0 2.715 2.8093 4.392 5.0251 3.357 62.4208-29.171 108.7508 5.414 110.9778 7.123Z"/></g><defs><clipPath id="a"><path fill="#fff" d="M0 0h130v215.599H0z" transform="rotate(11.203 80.8005 1033.73)"/></clipPath><clipPath id="b"><path fill="#fff" d="M0 0h130v215.06H0z" transform="scale(-1 1) rotate(11.203 -84.2286 -648.3313)"/></clipPath><clipPath id="c"><path fill="#fff" d="M0 0h130v213H0z" transform="translate(161)"/></clipPath><clipPath id="d"><path fill="#fff" d="M0 0h130v213H0z" transform="matrix(-1 0 0 1 169 0)"/></clipPath></defs></svg>